<mxfile host="app.diagrams.net" modified="2023-05-01T13:44:53.664Z" agent="Mozilla/5.0 (Windows NT 10.0; Win64; x64) AppleWebKit/537.36 (KHTML, like Gecko) Chrome/112.0.0.0 Safari/537.36" version="21.2.3" etag="WiYpjBkV4r3qj_JmOgQL" type="github">
  <diagram name="PÃ¡gina-1" id="ToDPa8DBKaBL0RdLWFqU">
    <mxGraphModel>
      <root>
        <mxCell id="0" />
        <mxCell id="1" parent="0" />
      </root>
    </mxGraphModel>
  </diagram>
</mxfile>
